<svg xmlns="http://www.w3.org/2000/svg" width="796" height="797" viewBox="0 0 796 797" fill="none"><mask id="path-1-inside-1_979_74082" fill="white"><path d="M795.076 -8.98297C795.076 46.9844 785.683 102.404 767.433 154.111C749.183 205.818 722.433 252.8 688.711 292.375C654.989 331.95 614.956 363.343 570.896 384.761C526.836 406.178 479.613 417.202 431.923 417.202C384.233 417.202 337.01 406.178 292.951 384.761C248.891 363.343 208.857 331.95 175.135 292.375C141.413 252.8 114.664 205.818 96.4134 154.111C78.1632 102.404 68.77 46.9844 68.77 -8.983L431.923 -8.98297H795.076Z"></path></mask><path d="M795.076 -8.98297C795.076 46.9844 785.683 102.404 767.433 154.111C749.183 205.818 722.433 252.8 688.711 292.375C654.989 331.95 614.956 363.343 570.896 384.761C526.836 406.178 479.613 417.202 431.923 417.202C384.233 417.202 337.01 406.178 292.951 384.761C248.891 363.343 208.857 331.95 175.135 292.375C141.413 252.8 114.664 205.818 96.4134 154.111C78.1632 102.404 68.77 46.9844 68.77 -8.983L431.923 -8.98297H795.076Z" stroke="black" stroke-width="2.29401" mask="url(#path-1-inside-1_979_74082)"></path><mask id="path-2-inside-2_979_74082" fill="white"><path d="M726.306 -8.98297C726.306 46.9844 716.913 102.404 698.663 154.111C680.413 205.818 653.663 252.8 619.941 292.375C586.219 331.95 546.186 363.343 502.126 384.761C458.066 406.178 410.843 417.202 363.153 417.202C315.463 417.202 268.24 406.178 224.18 384.761C180.121 363.343 140.087 331.95 106.365 292.375C72.6432 252.8 45.8935 205.818 27.6434 154.111C9.39323 102.404 -4.16919e-06 46.9844 0 -8.983L363.153 -8.98297H726.306Z"></path></mask><path d="M726.306 -8.98297C726.306 46.9844 716.913 102.404 698.663 154.111C680.413 205.818 653.663 252.8 619.941 292.375C586.219 331.95 546.186 363.343 502.126 384.761C458.066 406.178 410.843 417.202 363.153 417.202C315.463 417.202 268.24 406.178 224.18 384.761C180.121 363.343 140.087 331.95 106.365 292.375C72.6432 252.8 45.8935 205.818 27.6434 154.111C9.39323 102.404 -4.16919e-06 46.9844 0 -8.983L363.153 -8.98297H726.306Z" stroke="black" stroke-width="2.29401" mask="url(#path-2-inside-2_979_74082)"></path><mask id="path-3-inside-3_979_74082" fill="white"><path d="M0.00180177 798.076C0.00180594 742.108 9.39506 686.689 27.6452 634.982C45.8954 583.275 72.6451 536.292 106.367 496.717C140.089 457.142 180.123 425.75 224.182 404.332C268.242 382.914 315.465 371.891 363.155 371.891C410.845 371.891 458.068 382.914 502.128 404.332C546.188 425.75 586.221 457.143 619.943 496.717C653.665 536.292 680.415 583.275 698.665 634.982C716.915 686.689 726.308 742.108 726.308 798.076L363.155 798.076L0.00180177 798.076Z"></path></mask><path d="M0.00180177 798.076C0.00180594 742.108 9.39506 686.689 27.6452 634.982C45.8954 583.275 72.6451 536.292 106.367 496.717C140.089 457.142 180.123 425.75 224.182 404.332C268.242 382.914 315.465 371.891 363.155 371.891C410.845 371.891 458.068 382.914 502.128 404.332C546.188 425.75 586.221 457.143 619.943 496.717C653.665 536.292 680.415 583.275 698.665 634.982C716.915 686.689 726.308 742.108 726.308 798.076L363.155 798.076L0.00180177 798.076Z" stroke="black" stroke-width="2.29401" mask="url(#path-3-inside-3_979_74082)"></path><mask id="path-4-inside-4_979_74082" fill="white"><path d="M68.7712 798.076C68.7712 742.108 78.1645 686.689 96.4146 634.982C114.665 583.275 141.414 536.292 175.136 496.717C208.858 457.142 248.892 425.75 292.952 404.332C337.012 382.914 384.235 371.891 431.925 371.891C479.614 371.891 526.837 382.914 570.897 404.332C614.957 425.75 654.991 457.143 688.713 496.717C722.434 536.292 749.184 583.275 767.434 634.982C785.684 686.689 795.078 742.108 795.078 798.076L431.924 798.076L68.7712 798.076Z"></path></mask><path d="M68.7712 798.076C68.7712 742.108 78.1645 686.689 96.4146 634.982C114.665 583.275 141.414 536.292 175.136 496.717C208.858 457.142 248.892 425.75 292.952 404.332C337.012 382.914 384.235 371.891 431.925 371.891C479.614 371.891 526.837 382.914 570.897 404.332C614.957 425.75 654.991 457.143 688.713 496.717C722.434 536.292 749.184 583.275 767.434 634.982C785.684 686.689 795.078 742.108 795.078 798.076L431.924 798.076L68.7712 798.076Z" stroke="black" stroke-width="2.29401" mask="url(#path-4-inside-4_979_74082)"></path></svg>