<svg xmlns="http://www.w3.org/2000/svg" width="327" height="164" viewBox="0 0 327 164" fill="none"><path fill-rule="evenodd" clip-rule="evenodd" d="M1.25879 163.394C1.25879 73.849 73.849 1.25879 163.394 1.25879C252.938 1.25879 325.528 73.849 325.528 163.394C325.528 252.938 252.938 325.528 163.394 325.528C73.849 325.528 1.25879 252.938 1.25879 163.394ZM163.394 0.258789C73.2967 0.258789 0.258789 73.2967 0.258789 163.394C0.258789 253.49 73.2967 326.528 163.394 326.528C253.49 326.528 326.528 253.49 326.528 163.394C326.528 73.2967 253.49 0.258789 163.394 0.258789ZM13.8305 163.394C13.8305 80.7921 80.7922 13.8304 163.394 13.8304C245.995 13.8304 312.957 80.7921 312.957 163.394C312.957 245.995 245.995 312.957 163.394 312.957C80.7922 312.957 13.8305 245.995 13.8305 163.394ZM163.394 12.8304C80.2399 12.8304 12.8305 80.2398 12.8305 163.394C12.8305 246.547 80.2399 313.957 163.394 313.957C246.547 313.957 313.957 246.547 313.957 163.394C313.957 80.2398 246.547 12.8304 163.394 12.8304ZM163.394 26.4004C87.7349 26.4004 26.4009 87.7343 26.4009 163.394C26.4009 239.053 87.7349 300.387 163.394 300.387C239.053 300.387 300.387 239.053 300.387 163.394C300.387 87.7343 239.053 26.4004 163.394 26.4004ZM25.4009 163.394C25.4009 87.1821 87.1826 25.4004 163.394 25.4004C239.606 25.4004 301.387 87.1821 301.387 163.394C301.387 239.605 239.606 301.387 163.394 301.387C87.1826 301.387 25.4009 239.605 25.4009 163.394ZM38.9722 163.394C38.9722 94.6774 94.6776 38.972 163.394 38.972C232.11 38.972 287.815 94.6774 287.815 163.394C287.815 232.11 232.11 287.815 163.394 287.815C94.6776 287.815 38.9722 232.11 38.9722 163.394ZM163.394 37.972C94.1254 37.972 37.9722 94.1251 37.9722 163.394C37.9722 232.662 94.1254 288.815 163.394 288.815C232.662 288.815 288.815 232.662 288.815 163.394C288.815 94.1251 232.662 37.972 163.394 37.972ZM163.394 51.5418C101.62 51.5418 51.5422 101.62 51.5422 163.394C51.5422 225.168 101.62 275.245 163.394 275.245C225.168 275.245 275.246 225.168 275.246 163.394C275.246 101.62 225.168 51.5418 163.394 51.5418ZM50.5422 163.394C50.5422 101.067 101.068 50.5418 163.394 50.5418C225.72 50.5418 276.246 101.067 276.246 163.394C276.246 225.72 225.72 276.245 163.394 276.245C101.068 276.245 50.5422 225.72 50.5422 163.394ZM64.1134 163.394C64.1134 108.563 108.563 64.1134 163.394 64.1134C218.224 64.1134 262.674 108.563 262.674 163.394C262.674 218.224 218.224 262.674 163.394 262.674C108.563 262.674 64.1134 218.224 64.1134 163.394ZM163.394 63.1134C108.01 63.1134 63.1134 108.01 63.1134 163.394C63.1134 218.777 108.01 263.674 163.394 263.674C218.777 263.674 263.674 218.777 263.674 163.394C263.674 108.01 218.777 63.1134 163.394 63.1134ZM163.394 76.6834C115.505 76.6834 76.6834 115.505 76.6834 163.394C76.6834 211.282 115.505 250.104 163.394 250.104C211.282 250.104 250.104 211.282 250.104 163.394C250.104 115.505 211.282 76.6834 163.394 76.6834ZM75.6834 163.394C75.6834 114.953 114.953 75.6834 163.394 75.6834C211.835 75.6834 251.104 114.953 251.104 163.394C251.104 211.835 211.835 251.104 163.394 251.104C114.953 251.104 75.6834 211.835 75.6834 163.394ZM89.2547 163.394C89.2547 122.448 122.448 89.255 163.393 89.255C204.339 89.255 237.532 122.448 237.532 163.394C237.532 204.339 204.339 237.532 163.393 237.532C122.448 237.532 89.2547 204.339 89.2547 163.394ZM163.393 88.255C121.895 88.255 88.2547 121.896 88.2547 163.394C88.2547 204.891 121.895 238.532 163.393 238.532C204.891 238.532 238.532 204.891 238.532 163.394C238.532 121.896 204.891 88.255 163.393 88.255ZM163.394 101.825C129.39 101.825 101.825 129.39 101.825 163.394C101.825 197.397 129.39 224.962 163.394 224.962C197.397 224.962 224.962 197.397 224.962 163.394C224.962 129.39 197.397 101.825 163.394 101.825ZM100.825 163.394C100.825 128.838 128.838 100.825 163.394 100.825C197.949 100.825 225.962 128.838 225.962 163.394C225.962 197.949 197.949 225.962 163.394 225.962C128.838 225.962 100.825 197.949 100.825 163.394ZM114.397 163.394C114.397 136.333 136.334 114.397 163.394 114.397C190.454 114.397 212.391 136.333 212.391 163.394C212.391 190.454 190.454 212.391 163.394 212.391C136.334 212.391 114.397 190.454 114.397 163.394ZM163.394 113.397C135.781 113.397 113.397 135.781 113.397 163.394C113.397 191.006 135.781 213.391 163.394 213.391C191.006 213.391 213.391 191.006 213.391 163.394C213.391 135.781 191.006 113.397 163.394 113.397ZM163.393 126.966C143.275 126.966 126.966 143.275 126.966 163.393C126.966 183.512 143.275 199.821 163.393 199.821C183.512 199.821 199.821 183.512 199.821 163.393C199.821 143.275 183.512 126.966 163.393 126.966ZM125.966 163.393C125.966 142.723 142.723 125.966 163.393 125.966C184.064 125.966 200.821 142.723 200.821 163.393C200.821 184.064 184.064 200.821 163.393 200.821C142.723 200.821 125.966 184.064 125.966 163.393ZM139.539 163.394C139.539 150.219 150.219 139.538 163.394 139.538C176.569 139.538 187.249 150.219 187.249 163.394C187.249 176.569 176.569 187.249 163.394 187.249C150.219 187.249 139.539 176.569 139.539 163.394ZM163.394 138.538C149.667 138.538 138.539 149.666 138.539 163.394C138.539 177.121 149.667 188.249 163.394 188.249C177.121 188.249 188.249 177.121 188.249 163.394C188.249 149.666 177.121 138.538 163.394 138.538Z" fill="white"></path></svg>