<svg xmlns="http://www.w3.org/2000/svg" width="161" height="330" viewBox="0 0 161 330" fill="none"><path fill-rule="evenodd" clip-rule="evenodd" d="M269.882 224.921L270.371 224.921L270.043 224.484L247.783 194.862L270.043 165.236L269.825 165.072L270.043 164.908L247.738 135.198L270.043 105.516L270.371 105.079L269.882 105.079L239.736 91.7074L239.736 66.9545L270.08 -13.8472L269.825 -13.9431L269.673 -14.1703L209.209 26.0766L165.813 26.0766L135.645 -14.107L135.427 -13.9433L135.426 -13.9433L135.208 -14.1073L105.007 26.0766L91.7784 26.0766L0.99527 -14.1926L0.884796 -13.9436L0.628632 -13.8473L45.4353 105.34L0.665916 164.908L0.884575 165.072L0.88427 165.073L0.665977 165.236L45.4111 224.724L0.628616 343.847L0.88478 343.944L0.885055 343.944L0.995224 344.193L91.7776 303.924L104.983 303.924L135.208 344.108L135.426 343.943L135.645 344.107L165.837 303.924L209.16 303.924L269.673 344.171L269.824 343.944L269.825 343.944L269.825 343.944L270.08 343.848L239.736 263.046L239.736 238.293L269.882 224.921ZM268.901 342.26L239.736 264.599L239.736 303.45L268.901 342.26ZM239.191 302.724L239.191 263.145L231.268 242.049L203.014 254.582L239.191 302.724ZM202.621 254.968L238.999 303.378L209.325 303.378L180.602 284.274L202.621 254.968ZM202.621 254.059L224.515 224.921L180.724 224.921L202.621 254.059ZM180.291 225.252L202.165 254.361L162.802 271.822L180.291 225.252ZM180.129 224.129L194.639 185.492L151.095 185.492L180.129 224.129ZM150.412 185.492L179.81 224.613L135.699 253.951L135.699 185.492L150.412 185.492ZM150.684 184.946L194.844 184.946L202.205 165.345L135.955 165.345L150.684 184.946ZM135.699 165.913L150.002 184.946L135.699 184.946L135.699 165.913ZM135.153 164.278L135.153 145.055L120.708 145.055L135.153 164.278ZM120.025 145.055L134.862 164.799L68.5222 164.799L75.9448 145.055L120.025 145.055ZM120.297 144.509L135.153 144.509L135.153 76.0265L90.9472 105.451L120.297 144.509ZM90.6434 105.956L119.615 144.509L76.15 144.509L90.6434 105.956ZM90.4824 104.833L108.166 57.7946L90.6262 46.1197L68.4922 75.57L90.4824 104.833ZM68.1508 76.0243L90.1635 105.317L61.7382 124.238L61.7382 84.5567L68.1508 76.0243ZM68.1508 75.1157L90.171 45.8167L61.7382 26.8909L61.7382 66.5822L68.1508 75.1157ZM61.7382 67.4909L67.8094 75.57L61.7382 83.6481L61.7382 67.4909ZM61.1923 65.8558L61.1923 26.5275L2.06067 -12.8324L61.1923 65.8558ZM1.80899 -12.2587L61.1923 66.7645L61.1923 84.3744L45.824 104.823L1.80899 -12.2587ZM239.41 303.924L268.65 342.834L210.146 303.924L239.41 303.924ZM247.396 135.653L268.65 163.963L240.302 145.093L247.396 135.653ZM268.922 164.799L239.974 145.53L225.494 164.799L268.922 164.799ZM239.518 145.227L239.259 145.055L210.407 145.055L210.39 145.102L225.001 164.546L239.518 145.227ZM239.736 144.717L239.847 144.79L247.055 135.198L239.736 125.45L239.736 144.717ZM216.374 129.166L239.191 144.353L239.191 124.723L225.094 105.946L216.374 129.166ZM238.439 144.509L216.177 129.691L210.612 144.509L238.439 144.509ZM224.631 105.625L215.908 128.855L181.008 105.625L224.631 105.625ZM215.711 129.38L181.426 106.559L209.944 144.509L210.029 144.509L215.711 129.38ZM162.169 58.0442L179.713 104.763L135.847 75.5645L162.169 58.0442ZM179.762 105.451L135.699 76.1216L135.699 144.509L150.412 144.509L179.762 105.451ZM135.153 45.9138L135.153 75.1025L108.829 57.5806L116.351 37.5735L135.153 45.9138ZM134.862 75.5645L108.632 58.1051L91.1237 104.678L134.862 75.5645ZM115.851 37.3518L108.363 57.2701L90.9547 45.6826L101.875 31.1524L115.851 37.3518ZM101.363 30.9253L90.4995 45.3796L62.3202 26.6225L91.6627 26.6225L101.363 30.9253ZM90.4321 26.0766L61.5001 26.0766L3.70578 -12.3932L90.4321 26.0766ZM2.05971 342.834L61.1923 303.505L61.1923 264.145L2.05971 342.834ZM61.7382 263.418L61.7382 303.142L90.1709 284.232L68.1239 254.92L61.7382 263.418ZM67.7824 254.466L61.7382 262.51L61.7382 246.431L67.7824 254.466ZM68.4653 254.466L90.6262 283.929L108.183 272.252L90.4824 225.167L68.4653 254.466ZM90.1154 224.747L68.1237 254.012L61.7382 245.523L61.7382 205.874L90.1154 224.747ZM90.8991 224.613L135.153 254.046L135.153 185.492L120.297 185.492L90.8991 224.613ZM119.615 185.492L90.6435 224.044L76.1501 185.492L119.615 185.492ZM120.708 184.946L135.153 184.946L135.153 165.723L120.708 184.946ZM134.754 165.345L120.025 184.946L75.9449 184.946L68.5764 165.345L134.754 165.345ZM135.847 164.799L202.259 164.799L194.844 145.055L150.684 145.055L135.847 164.799ZM150.002 145.055L135.699 164.088L135.699 145.055L150.002 145.055ZM151.095 144.509L194.639 144.509L180.129 105.872L151.095 144.509ZM180.725 105.079L224.443 105.079L202.594 75.977L180.725 105.079ZM202.165 75.6389L180.291 104.748L162.802 58.1783L202.165 75.6389ZM203.014 75.4182L231.268 87.9512L239.191 66.8554L239.191 27.2768L203.014 75.4182ZM238.999 26.6225L202.594 75.0681L180.602 45.7745L209.374 26.6225L238.999 26.6225ZM239.736 26.5504L239.736 65.4018L268.901 -12.2594L239.736 26.5504ZM268.649 -12.8324L239.41 26.0766L210.194 26.0766L268.649 -12.8324ZM61.1923 263.236L1.80876 342.259L45.8 225.241L61.1923 245.705L61.1923 263.236ZM225.602 165.345L268.921 165.345L240.038 184.555L225.602 165.345ZM268.65 166.181L240.366 184.993L247.441 194.408L268.65 166.181ZM239.911 185.295L239.736 185.411L239.736 204.662L247.1 194.862L239.911 185.295ZM239.451 184.946L239.583 184.858L225.001 165.454L210.39 184.899L210.407 184.946L239.451 184.946ZM216.212 200.402L238.63 185.492L210.612 185.492L216.212 200.402ZM239.191 185.775L216.409 200.927L225.118 224.118L239.191 205.389L239.191 185.775ZM210.029 185.492L215.745 200.712L181.281 223.635L209.944 185.492L210.029 185.492ZM215.942 201.237L181.153 224.375L224.631 224.375L215.942 201.237ZM179.665 225.365L135.847 254.508L162.151 272.002L179.665 225.365ZM91.1718 225.45L134.862 254.508L108.65 271.941L91.1718 225.45ZM135.153 254.97L108.847 272.466L116.351 292.426L135.153 284.086L135.153 254.97ZM108.38 272.776L90.9549 284.366L101.855 298.857L115.851 292.648L108.38 272.776ZM90.4996 284.669L62.3695 303.378L91.662 303.378L101.342 299.084L90.4996 284.669ZM61.5488 303.924L3.71376 342.39L90.4314 303.924L61.5488 303.924ZM239.191 261.592L239.191 238.535L231.768 241.827L239.191 261.592ZM231.576 241.315L239.191 237.938L239.191 224.921L225.419 224.921L231.576 241.315ZM224.957 225.242L231.076 241.537L203.533 253.754L224.957 225.242ZM210.162 184.293L203.047 165.345L224.401 165.345L210.162 184.293ZM202.626 165.777L209.773 184.81L209.671 184.946L195.427 184.946L202.626 165.777ZM202.626 164.224L209.773 145.19L209.672 145.055L195.427 145.055L202.626 164.224ZM195.222 144.509L209.261 144.509L181.198 107.164L195.222 144.509ZM162.438 57.209L179.818 45.6402L165.54 26.6225L150.952 26.6225L162.438 57.209ZM150.747 26.0766L165.131 26.0766L136.351 -12.2566L150.747 26.0766ZM135.699 -12.4413L150.164 26.0766L135.699 26.0766L135.699 -12.4413ZM150.369 26.6225L161.833 57.1514L135.699 45.5588L135.699 26.6225L150.369 26.6225ZM45.6388 224.119L2.06045 166.182L54.346 200.957L45.6388 224.119ZM1.7878 165.345L54.5432 200.433L67.7338 165.345L1.7878 165.345ZM46.0276 224.636L54.8126 201.267L61.1923 205.51L61.1923 244.797L46.0276 224.636ZM55.0097 200.743L61.1923 204.855L61.1923 185.219L61.1923 184.946L61.4652 184.946L75.3617 184.946L68.1551 165.776L55.0097 200.743ZM61.7382 205.218L90.0656 224.058L75.5669 185.492L61.7382 185.492L61.7382 205.218ZM135.699 283.844L135.699 255.065L161.657 272.329L135.699 283.844ZM150.952 303.378L162.421 272.837L179.818 284.408L165.565 303.378L150.952 303.378ZM162.787 272.425L180.146 283.971L201.836 255.104L162.787 272.425ZM166.248 303.378L180.273 284.711L208.34 303.378L166.248 303.378ZM136.351 342.259L165.155 303.924L150.747 303.924L136.351 342.259ZM150.164 303.924L135.699 342.442L135.699 303.924L150.164 303.924ZM161.833 272.849L150.369 303.378L135.699 303.378L135.699 284.441L161.833 272.849ZM181.198 222.836L209.261 185.492L195.222 185.492L181.198 222.836ZM202.993 164.799L224.509 164.799L210.162 145.708L202.993 164.799ZM225.419 105.079L239.191 105.079L239.191 92.0625L231.576 88.6848L225.419 105.079ZM231.076 88.4631L224.933 104.823L203.451 76.2091L231.076 88.4631ZM231.768 88.1729L239.191 91.4653L239.191 68.4081L231.768 88.1729ZM166.223 26.6225L208.389 26.6225L180.273 45.3373L166.223 26.6225ZM180.146 46.0775L162.839 57.5977L201.755 74.8599L180.146 46.0775ZM135.699 46.156L161.71 57.6938L135.699 75.0074L135.699 46.156ZM90.0171 106.071L61.7382 124.894L61.7382 144.509L75.5669 144.509L90.0171 106.071ZM61.1923 85.283L61.1923 124.602L54.8472 128.825L46.0516 105.428L61.1923 85.283ZM61.1923 125.257L55.0444 129.35L68.1551 164.224L75.3616 145.055L61.4652 145.055L61.1923 145.055L61.1923 144.782L61.1923 125.257ZM45.6629 105.946L54.3808 129.136L2.05965 163.962L45.6629 105.946ZM54.578 129.66L1.78732 164.799L67.788 164.799L54.578 129.66ZM225.608 224.375L239.191 224.375L239.191 206.297L225.608 224.375ZM239.736 205.571L239.736 224.375L269.278 224.375L247.441 195.316L239.736 205.571ZM269.278 105.625L247.396 134.744L239.736 124.541L239.736 105.625L269.278 105.625ZM239.191 105.625L239.191 123.814L225.535 105.625L239.191 105.625ZM268.535 224.921L239.736 224.921L239.736 237.695L268.535 224.921ZM116.543 292.938L135.153 284.683L135.153 303.378L120.468 303.378L116.543 292.938ZM102.191 299.304L116.043 293.16L119.884 303.378L105.255 303.378L102.191 299.304ZM93.0082 303.378L101.679 299.532L104.572 303.378L93.0082 303.378ZM239.736 92.3046L268.536 105.079L239.736 105.079L239.736 92.3046ZM135.153 26.6225L135.153 45.3167L116.543 37.0617L120.468 26.6225L135.153 26.6225ZM119.884 26.6225L116.043 36.84L102.212 30.7046L105.28 26.6225L119.884 26.6225ZM104.597 26.6225L101.699 30.4774L93.009 26.6225L104.597 26.6225ZM120.673 26.0766L135.153 26.0766L135.153 -12.4416L120.673 26.0766ZM134.501 -12.2581L120.09 26.0766L105.69 26.0766L134.501 -12.2581ZM105.666 303.924L120.09 303.924L134.502 342.261L105.666 303.924ZM120.673 303.924L135.153 342.442L135.153 303.924L120.673 303.924Z" fill="black"></path></svg>